<svg id="Layer_1" data-name="Layer 1" xmlns="http://www.w3.org/2000/svg" viewBox="0 0 60 60"><defs><style>.cls-1,.cls-2{fill-rule:evenodd;}.cls-2{fill:#fff;}</style></defs><g id="black"><g id="youtube"><path class="cls-1" d="M30,60A30,30,0,1,0,0,30,30,30,0,0,0,30,60Z" transform="translate(0 0)"/><path class="cls-2" d="M41.72,28.85H18.28a6.51,6.51,0,0,0-6.74,6.45v6.46a6.72,6.72,0,0,0,6.74,6.7H41.72a6.72,6.72,0,0,0,6.74-6.7V35.35A6.55,6.55,0,0,0,41.72,28.85ZM22.88,34.1H20.62V44.54H18.43V34.1H16.18V32.32h6.7ZM28.67,45H26.73V44a4,4,0,0,1-1.12.83,2.43,2.43,0,0,1-1.13.29,1.24,1.24,0,0,1-1-.4,1.88,1.88,0,0,1-.34-1.21V36h1.94v6.92a.7.7,0,0,0,.12.46.49.49,0,0,0,.4.14,1.13,1.13,0,0,0,.54-.19,2.27,2.27,0,0,0,.6-.48V36h1.94v9Zm8.11-2.11a2.17,2.17,0,0,1-.45,1.47A1.85,1.85,0,0,1,35,45.1a6,6,0,0,1-1.56-.19,2.44,2.44,0,0,1-.82-.61V45h-2V32.52h2V36.7a3,3,0,0,1,.83-.62,4.69,4.69,0,0,1,1.43-.22c.62,0,1.09,0,1.41.33a2.6,2.6,0,0,1,.48,1.69v5Zm7-2.33h-3.7v1.7a1.9,1.9,0,0,0,.18,1,.74.74,0,0,0,.66.28.87.87,0,0,0,.68-.23,1.9,1.9,0,0,0,.19-1v-.41h2v.46a2.77,2.77,0,0,1-.73,2.09,3,3,0,0,1-2.17.7,2.59,2.59,0,0,1-2.8-2.79v-4A2.44,2.44,0,0,1,39,36.34a3.06,3.06,0,0,1,2.12-.74,2.88,2.88,0,0,1,2,.68,2.6,2.6,0,0,1,.71,2v2.3ZM41,37.18a.78.78,0,0,0-.66.25,1.2,1.2,0,0,0-.2.8v.92h1.71v-.92a1.2,1.2,0,0,0-.21-.8A.76.76,0,0,0,41,37.18Zm-7.55.12a1,1,0,0,0-.41.08,1.46,1.46,0,0,0-.4.28v5.61a1.65,1.65,0,0,0,.46.33,1.22,1.22,0,0,0,.46.09,2.63,2.63,0,0,0,1.07-.19.94.94,0,0,0,.17-.62V38.22a1,1,0,0,0-.21-.69A2.52,2.52,0,0,0,33.44,37.3Zm2.43-10.69a2.62,2.62,0,0,0,1.22-.34,4.27,4.27,0,0,0,1.21-1v1.15h2.1V16.06H38.3V24a2.65,2.65,0,0,1-.65.56,1.14,1.14,0,0,1-.58.22.51.51,0,0,1-.43-.17A.82.82,0,0,1,36.5,24v-8H34.4v8.69a2.24,2.24,0,0,0,.37,1.39A1.32,1.32,0,0,0,35.87,26.61Zm-6.19.11A3.19,3.19,0,0,0,31.93,26a2.7,2.7,0,0,0,.82-2.09V18.5a2.55,2.55,0,0,0-.83-1.95,3.09,3.09,0,0,0-2.14-.75,3.43,3.43,0,0,0-2.29.72,2.37,2.37,0,0,0-.84,1.92v5.39a2.75,2.75,0,0,0,.82,2.1A3.05,3.05,0,0,0,29.68,26.72Zm-.87-8.36a.69.69,0,0,1,.24-.55.91.91,0,0,1,.62-.21,1,1,0,0,1,.68.21.68.68,0,0,1,.26.55V24a.87.87,0,0,1-.26.66.94.94,0,0,1-.68.24.84.84,0,0,1-.64-.24.89.89,0,0,1-.22-.66V18.36Zm-7.46,8.1h2.37V19.78l2.75-8.24h-2.4L22.6,17.17h-.15l-1.53-5.63H18.53L21.35,20v6.42Z" transform="translate(0 0)"/></g></g></svg>