<svg id="Layer_1" data-name="Layer 1" xmlns="http://www.w3.org/2000/svg" viewBox="0 0 40 40"><defs><style>.cls-1{fill:#1f3740;}.cls-2{fill:#fff;}</style></defs><circle id="Ellipse_11" data-name="Ellipse 11" class="cls-1" cx="20" cy="20" r="20"/><path id="Right_arrow" data-name="Right arrow" class="cls-2" d="M21.73,24.76l7.7-8.67a1.77,1.77,0,0,0,0-2.31,1.36,1.36,0,0,0-1.91-.16,1.14,1.14,0,0,0-.15.16l-8.73,9.83a1.79,1.79,0,0,0,0,2.26l8.8,9.86a1.36,1.36,0,0,0,1.91.16,1.21,1.21,0,0,0,.16-.16,1.77,1.77,0,0,0,0-2.31Z" transform="translate(-5.05 -4.76)"/></svg>